# xmcd
#
# Track frame offsets:
#	150
#	15050
#	29493
#	44794
#	60202
#	75403
#	94496
#	110387
#	124826
#	140497
#	156092
#	171213
#	185339
#	200164
#
# Disc length: 2905 seconds
#
# Revision: 1
# Processed by: cddbd v1.5.2PL0 Copyright (c) Steve Scherf et al.
# Submitted via: audiograbber 1.83.01
#
DISCID=b70b570e
DTITLE=Amigos - Ein Tag im Paradies
DYEAR=2008
DGENRE=Schlager
TTITLE0=Das weiﬂe Schiff verl‰sst den Hafen
TTITLE1=So heiﬂ wie ein Vulkan
TTITLE2=Mitten ins Herz
TTITLE3=Ein Tag im Paradies
TTITLE4=Gebrochene Kinderherzen
TTITLE5=Schau zum Himmel und denk' an mich
TTITLE6=Mein Sohn der Trucker
TTITLE7=Engel der Liebe
TTITLE8=Ich habe Dir mein Wort gegeben
TTITLE9=Wenn ich geh
TTITLE10=Der alte Mann auf der Parkbank
TTITLE11=Mein Vogelsberg
TTITLE12=Heiﬂe Herzen
TTITLE13=Arrivederci
EXTD=YEAR: 2008
EXTT0=
EXTT1=
EXTT2=
EXTT3=
EXTT4=
EXTT5=
EXTT6=
EXTT7=
EXTT8=
EXTT9=
EXTT10=
EXTT11=
EXTT12=
EXTT13=
PLAYORDER=
